HIERARCHY
ROOT Hips
{
	OFFSET -2.069440 95.939100 -0.521947
	CHANNELS 6 Xposition Yposition Zposition Zrotation Yrotation Xrotation 
	JOINT Spine
	{
		OFFSET 0.000000 5.645720 -0.031929
		CHANNELS 3 Zrotation Yrotation Xrotation
		JOINT Spine1
		{
			OFFSET 0.000000 6.586780 0.000000
			CHANNELS 3 Zrotation Yrotation Xrotation
			JOINT Spine2
			{
				OFFSET 0.000000 7.527750 0.000000
				CHANNELS 3 Zrotation Yrotation Xrotation
				JOINT Neck
				{
					OFFSET 0.000000 8.468720 0.000000
					CHANNELS 3 Zrotation Yrotation Xrotation
					JOINT Head
					{
						OFFSET 0.000000 5.998900 -1.158960
						CHANNELS 3 Zrotation Yrotation Xrotation
						End Site
						{
							OFFSET 0.000000 0.000000 0.000000
						}
					}
				}
				JOINT LeftShoulder
				{
					OFFSET 3.414670 7.343370 -0.017399
					CHANNELS 3 Zrotation Yrotation Xrotation
					JOINT LeftArm
					{
						OFFSET 0.000000 7.189680 0.000000
						CHANNELS 3 Zrotation Yrotation Xrotation
						JOINT LeftForeArm
						{
							OFFSET 0.000000 24.203600 0.000000
							CHANNELS 3 Zrotation Yrotation Xrotation
							JOINT LeftHand
							{
								OFFSET 0.000000 21.595100 0.000000
								CHANNELS 3 Zrotation Yrotation Xrotation
								JOINT LeftHandThumb1
								{
									OFFSET -2.145260 2.098240 1.106680
									CHANNELS 3 Zrotation Yrotation Xrotation
									JOINT LeftHandThumb2
									{
										OFFSET -0.442220 2.520180 0.000000
										CHANNELS 3 Zrotation Yrotation Xrotation
										JOINT LeftHandThumb3
										{
											OFFSET 0.050098 3.105540 0.000000
											CHANNELS 3 Zrotation Yrotation Xrotation
											End Site
											{
												OFFSET 0.000000 0.000000 0.000000
											}
										}
									}
								}
								JOINT LeftHandIndex1
								{
									OFFSET -2.561020 7.100100 0.048590
									CHANNELS 3 Zrotation Yrotation Xrotation
									JOINT LeftHandIndex2
									{
										OFFSET -0.000565 3.000100 0.000000
										CHANNELS 3 Zrotation Yrotation Xrotation
										JOINT LeftHandIndex3
										{
											OFFSET 0.000474 2.748580 0.000000
											CHANNELS 3 Zrotation Yrotation Xrotation
											End Site
											{
												OFFSET 0.000000 0.000000 0.000000
											}
										}
									}
								}
								JOINT LeftHandMiddle1
								{
									OFFSET -0.824928 7.382680 -0.104729
									CHANNELS 3 Zrotation Yrotation Xrotation
									JOINT LeftHandMiddle2
									{
										OFFSET -0.001894 3.379570 0.000000
										CHANNELS 3 Zrotation Yrotation Xrotation
										JOINT LeftHandMiddle3
										{
											OFFSET 0.005514 3.190790 0.000000
											CHANNELS 3 Zrotation Yrotation Xrotation
											End Site
											{
												OFFSET 0.000000 0.000000 0.000000
											}
										}
									}
								}
								JOINT LeftHandRing1
								{
									OFFSET 0.887762 7.537540 0.096351
									CHANNELS 3 Zrotation Yrotation Xrotation
									JOINT LeftHandRing2
									{
										OFFSET -0.004293 2.845230 0.000000
										CHANNELS 3 Zrotation Yrotation Xrotation
										JOINT LeftHandRing3
										{
											OFFSET 0.000745 2.681010 0.000000
											CHANNELS 3 Zrotation Yrotation Xrotation
											End Site
											{
												OFFSET 0.000000 0.000000 0.000000
											}
										}
									}
								}
								JOINT LeftHandPinky1
								{
									OFFSET 2.498190 7.361750 0.028723
									CHANNELS 3 Zrotation Yrotation Xrotation
									JOINT LeftHandPinky2
									{
										OFFSET 0.000524 2.480180 0.000000
										CHANNELS 3 Zrotation Yrotation Xrotation
										JOINT LeftHandPinky3
										{
											OFFSET 0.001382 1.951100 0.000000
											CHANNELS 3 Zrotation Yrotation Xrotation
											End Site
											{
												OFFSET 0.000000 0.000000 0.000000
											}
										}
									}
								}
							}
						}
					}
				}
				JOINT RightShoulder
				{
					OFFSET -3.414670 7.343250 0.004669
					CHANNELS 3 Zrotation Yrotation Xrotation
					JOINT RightArm
					{
						OFFSET 0.000000 7.189680 0.000000
						CHANNELS 3 Zrotation Yrotation Xrotation
						JOINT RightForeArm
						{
							OFFSET 0.000000 24.202700 0.000000
							CHANNELS 3 Zrotation Yrotation Xrotation
							JOINT RightHand
							{
								OFFSET 0.000000 21.595600 0.000000
								CHANNELS 3 Zrotation Yrotation Xrotation
								JOINT RightHandThumb1
								{
									OFFSET 2.165390 2.135240 1.174500
									CHANNELS 3 Zrotation Yrotation Xrotation
									JOINT RightHandThumb2
									{
										OFFSET 0.438063 2.570950 0.000000
										CHANNELS 3 Zrotation Yrotation Xrotation
										JOINT RightHandThumb3
										{
											OFFSET -0.052069 3.059310 0.000000
											CHANNELS 3 Zrotation Yrotation Xrotation
											End Site
											{
												OFFSET 0.000000 0.000000 0.000000
											}
										}
									}
								}
								JOINT RightHandIndex1
								{
									OFFSET 2.566980 7.104990 0.039442
									CHANNELS 3 Zrotation Yrotation Xrotation
									JOINT RightHandIndex2
									{
										OFFSET -0.001005 2.949330 0.000000
										CHANNELS 3 Zrotation Yrotation Xrotation
										JOINT RightHandIndex3
										{
											OFFSET -0.005538 2.801570 0.000000
											CHANNELS 3 Zrotation Yrotation Xrotation
											End Site
											{
												OFFSET 0.000000 0.000000 0.000000
											}
										}
									}
								}
								JOINT RightHandMiddle1
								{
									OFFSET 0.836095 7.262780 -0.110122
									CHANNELS 3 Zrotation Yrotation Xrotation
									JOINT RightHandMiddle2
									{
										OFFSET 0.009278 3.311090 0.000000
										CHANNELS 3 Zrotation Yrotation Xrotation
										JOINT RightHandMiddle3
										{
											OFFSET -0.000049 3.189110 0.000000
											CHANNELS 3 Zrotation Yrotation Xrotation
											End Site
											{
												OFFSET 0.000000 0.000000 0.000000
											}
										}
									}
								}
								JOINT RightHandRing1
								{
									OFFSET -0.985335 7.492670 -0.018888
									CHANNELS 3 Zrotation Yrotation Xrotation
									JOINT RightHandRing2
									{
										OFFSET 0.001496 2.815510 0.000000
										CHANNELS 3 Zrotation Yrotation Xrotation
										JOINT RightHandRing3
										{
											OFFSET -0.000063 2.735680 0.000000
											CHANNELS 3 Zrotation Yrotation Xrotation
											End Site
											{
												OFFSET 0.000000 0.000000 0.000000
											}
										}
									}
								}
								JOINT RightHandPinky1
								{
									OFFSET -2.417740 7.441800 0.091014
									CHANNELS 3 Zrotation Yrotation Xrotation
									JOINT RightHandPinky2
									{
										OFFSET -0.000703 2.449320 0.000000
										CHANNELS 3 Zrotation Yrotation Xrotation
										JOINT RightHandPinky3
										{
											OFFSET -0.006402 1.966050 0.000000
											CHANNELS 3 Zrotation Yrotation Xrotation
											End Site
											{
												OFFSET 0.000000 0.000000 0.000000
											}
										}
									}
								}
							}
						}
					}
				}
			}
		}
	}
	JOINT LeftUpLeg
	{
		OFFSET 6.620180 -8.816850 -0.447183
		CHANNELS 3 Zrotation Yrotation Xrotation
		JOINT LeftLeg
		{
			OFFSET -0.372256 36.185200 0.088340
			CHANNELS 3 Zrotation Yrotation Xrotation
			JOINT LeftFoot
			{
				OFFSET 0.000000 46.263100 0.000000
				CHANNELS 3 Zrotation Yrotation Xrotation
				JOINT LeftToeBase
				{
					OFFSET 0.000000 16.368600 0.000000
					CHANNELS 3 Zrotation Yrotation Xrotation
					End Site
					{
						OFFSET 0.000000 0.000000 0.000000
					}
				}
			}
		}
	}
	JOINT RightUpLeg
	{
		OFFSET -6.620180 -8.816850 -0.447183
		CHANNELS 3 Zrotation Yrotation Xrotation
		JOINT RightLeg
		{
			OFFSET 0.372114 36.183900 0.496157
			CHANNELS 3 Zrotation Yrotation Xrotation
			JOINT RightFoot
			{
				OFFSET 0.000000 46.253300 0.000000
				CHANNELS 3 Zrotation Yrotation Xrotation
				JOINT RightToeBase
				{
					OFFSET 0.000000 16.863400 0.000000
					CHANNELS 3 Zrotation Yrotation Xrotation
					End Site
					{
						OFFSET 0.000000 0.000000 0.000000
					}
				}
			}
		}
	}
}
MOTION
Frames: 5
Frame Time: 0.033333
236.994980 92.879379 -72.723473 175.459852 3.258835 175.676927 -4.165608 -9.010598 9.086799 -0.307423 -1.583381 1.187732 -0.279020 -1.578466 1.198787 -1.117270 -2.323542 2.752647 -4.226946 -4.402884 -14.207437 166.360661 85.471392 -72.320529 22.746553 6.953818 3.345768 128.763702 -2.082297 0.779282 -47.275054 -61.828254 32.375557 24.319441 11.743412 15.895183 -15.523463 -0.532418 -10.402007 22.377259 4.884092 -13.429132 -0.885107 1.909446 44.200133 -5.581624 9.756789 121.796080 -3.793958 1.318427 36.011080 3.210234 -2.078184 44.637777 -5.484139 9.764082 121.904614 -3.643614 1.234578 35.721312 -1.897681 2.809798 53.719110 -5.573798 10.127823 121.928181 -3.652505 1.186227 35.562456 2.109523 -3.547405 58.687566 -6.151391 8.819375 110.442650 -4.851457 2.210949 48.301582 -1.733406 -80.852751 128.965753 22.518612 16.995850 47.730202 -6.901426 0.486051 0.116441 11.371961 -41.977161 5.584128 -25.659138 -3.664343 16.675540 16.040404 -0.161465 0.837130 9.920067 0.023979 -14.749561 -2.638473 -0.108275 15.445250 2.363089 -0.682010 32.272801 0.818830 -0.089734 11.468402 -2.064251 -0.285711 23.144978 2.321074 -0.670109 32.302177 0.829851 -0.083967 11.174400 -1.691417 -0.255218 26.718437 2.318538 -0.668999 32.346836 0.925071 -0.084548 11.029647 -1.752231 -0.689763 28.204989 2.080425 -0.610473 32.454845 0.723958 -0.060088 10.490784 169.819621 -0.815566 -15.579236 0.976362 -4.917027 -3.837064 5.290381 -10.862939 71.472085 -0.035003 -0.815933 38.096081 171.343838 -0.536117 23.787359 -2.792772 9.360551 -11.717674 15.184272 17.384731 71.405624 0.561147 -2.727667 10.976329 
237.436905 92.387802 -75.954567 175.169296 2.478929 175.803329 -4.264060 -9.082079 9.075517 -0.235789 -1.594948 1.276641 -0.207938 -1.589409 1.288548 -1.149658 -2.371392 2.721842 -4.065797 -5.117194 -13.248342 167.052011 84.957639 -71.133928 20.571096 10.353718 6.481398 127.279991 -2.061951 0.795217 -38.111460 -58.621442 25.435558 24.319441 11.743412 15.895183 -15.523463 -0.532418 -10.402007 22.377259 4.884092 -13.429132 -0.885107 1.909446 44.200133 -5.581624 9.756789 121.796080 -3.793958 1.318427 36.011080 3.210234 -2.078184 44.637777 -5.484139 9.764082 121.904614 -3.643614 1.234578 35.721312 -1.897681 2.809798 53.719110 -5.573798 10.127823 121.928181 -3.652505 1.186227 35.562456 2.109523 -3.547405 58.687566 -6.151391 8.819375 110.442650 -4.851457 2.210949 48.301582 -1.909589 -81.107302 129.236443 22.751183 17.374326 48.191377 -6.089294 0.484503 0.102802 11.745961 -44.639924 6.569480 -25.659138 -3.664343 16.675540 16.040404 -0.161465 0.837130 9.920067 0.023979 -14.749561 -2.638473 -0.108275 15.445250 2.363089 -0.682010 32.272801 0.818830 -0.089734 11.468402 -2.064251 -0.285711 23.144978 2.321074 -0.670109 32.302177 0.829851 -0.083967 11.174400 -1.691417 -0.255218 26.718437 2.318538 -0.668999 32.346836 0.925071 -0.084548 11.029647 -1.752231 -0.689763 28.204989 2.080425 -0.610473 32.454845 0.723958 -0.060088 10.490784 170.019801 -1.464114 -17.723992 0.859634 -3.306390 -3.613415 4.964596 -10.837017 71.754422 -0.045820 -0.914521 38.913577 170.859707 -0.463304 22.885731 -1.206329 9.857528 -8.260950 9.051771 11.008847 64.724073 0.195198 -1.624438 20.510102 
237.928482 92.005707 -79.282166 175.433888 1.317982 175.734573 -3.665019 -9.323514 8.894746 -0.127264 -1.634744 1.420110 -0.100246 -1.628757 1.431186 -1.189987 -2.406342 2.675467 -4.090964 -5.712397 -12.636445 167.573616 84.456481 -70.158342 18.029628 13.610976 10.222213 125.546952 -2.037622 0.813166 -29.857665 -54.336632 19.375956 24.319441 11.743412 15.895183 -15.523463 -0.532418 -10.402007 22.377259 4.884092 -13.429132 -0.885107 1.909446 44.200133 -5.581624 9.756789 121.796080 -3.793958 1.318427 36.011080 3.210234 -2.078184 44.637777 -5.484139 9.764082 121.904614 -3.643614 1.234578 35.721312 -1.897681 2.809798 53.719110 -5.573798 10.127823 121.928181 -3.652505 1.186227 35.562456 2.109523 -3.547405 58.687566 -6.151391 8.819375 110.442650 -4.851457 2.210949 48.301582 -2.135186 -81.434618 129.681754 22.470039 17.917055 48.135853 -5.456185 0.483420 0.092150 12.061678 -47.655366 7.060665 -25.659138 -3.664343 16.675540 16.040404 -0.161465 0.837130 9.920067 0.023979 -14.749561 -2.638473 -0.108275 15.445250 2.363089 -0.682010 32.272801 0.818830 -0.089734 11.468402 -2.064251 -0.285711 23.144978 2.321074 -0.670109 32.302177 0.829851 -0.083967 11.174400 -1.691417 -0.255218 26.718437 2.318538 -0.668999 32.346836 0.925071 -0.084548 11.029647 -1.752231 -0.689763 28.204989 2.080425 -0.610473 32.454845 0.723958 -0.060088 10.490784 171.069863 -2.071884 -18.443250 0.846788 -1.602106 -6.976757 4.473161 -10.863469 73.279154 -0.077919 -1.153228 40.899024 170.787725 -0.779512 21.840456 -0.469962 10.170747 -7.844124 3.744415 7.088244 55.787303 0.031662 -0.650043 28.603277 
238.453506 91.848038 -82.735191 176.384882 0.054804 175.668473 -2.465551 -9.431752 8.527487 0.041085 -1.647850 1.555529 0.066575 -1.641716 1.564240 -1.163635 -2.469529 2.711615 -4.197325 -6.369923 -12.212438 167.937014 84.075218 -69.512872 15.286799 16.843557 14.570755 123.324422 -2.005669 0.835072 -22.694908 -49.416001 14.272027 24.319441 11.743412 15.895183 -15.523463 -0.532418 -10.402007 22.377259 4.884092 -13.429132 -0.885107 1.909446 44.200133 -5.581624 9.756789 121.796080 -3.793958 1.318427 36.011080 3.210234 -2.078184 44.637777 -5.484139 9.764082 121.904614 -3.643614 1.234578 35.721312 -1.897681 2.809798 53.719110 -5.573798 10.127823 121.928181 -3.652505 1.186227 35.562456 2.109523 -3.547405 58.687566 -6.151391 8.819375 110.442650 -4.851457 2.210949 48.301582 -2.372168 -81.752969 130.190440 21.965978 18.433260 47.634433 -5.094862 0.482852 0.086040 12.500418 -49.501647 6.754349 -25.659138 -3.664343 16.675540 16.040404 -0.161465 0.837130 9.920067 0.023979 -14.749561 -2.638473 -0.108275 15.445250 2.363089 -0.682010 32.272801 0.818830 -0.089734 11.468402 -2.064251 -0.285711 23.144978 2.321074 -0.670109 32.302177 0.829851 -0.083967 11.174400 -1.691417 -0.255218 26.718437 2.318538 -0.668999 32.346836 0.925071 -0.084548 11.029647 -1.752231 -0.689763 28.204989 2.080425 -0.610473 32.454845 0.723958 -0.060088 10.490784 173.077990 -2.591924 -19.043415 0.670526 -0.024088 -10.506342 4.304061 -10.863514 73.564703 -0.179955 -1.684019 45.356756 171.543849 -1.304101 21.639171 -0.212205 8.684064 -10.970081 -0.175600 6.295606 49.869326 0.002057 -0.164372 32.585004 
239.024887 91.874229 -86.287949 177.628032 -0.766587 175.588728 -1.313633 -9.101218 8.119173 0.292404 -1.582320 1.602168 0.315782 -1.576010 1.608723 -0.991827 -2.590616 2.867652 -4.078629 -7.222395 -11.481760 168.296685 83.829080 -69.158945 12.685736 19.973326 19.256139 120.555062 -1.964703 0.860645 -16.465444 -44.266672 9.810957 24.319441 11.743412 15.895183 -15.523463 -0.532418 -10.402007 22.377259 4.884092 -13.429132 -0.885107 1.909446 44.200133 -5.581624 9.756789 121.796080 -3.793958 1.318427 36.011080 3.210234 -2.078184 44.637777 -5.484139 9.764082 121.904614 -3.643614 1.234578 35.721312 -1.897681 2.809798 53.719110 -5.573798 10.127823 121.928181 -3.652505 1.186227 35.562456 2.109523 -3.547405 58.687566 -6.151391 8.819375 110.442650 -4.851457 2.210949 48.301582 -2.589582 -82.012703 130.631952 21.553199 18.833007 46.944023 -5.010440 0.482719 0.084643 12.885112 -49.257595 5.924236 -25.659138 -3.664343 16.675540 16.040404 -0.161465 0.837130 9.920067 0.023979 -14.749561 -2.638473 -0.108275 15.445250 2.363089 -0.682010 32.272801 0.818830 -0.089734 11.468402 -2.064251 -0.285711 23.144978 2.321074 -0.670109 32.302177 0.829851 -0.083967 11.174400 -1.691417 -0.255218 26.718437 2.318538 -0.668999 32.346836 0.925071 -0.084548 11.029647 -1.752231 -0.689763 28.204989 2.080425 -0.610473 32.454845 0.723958 -0.060088 10.490784 175.497463 -3.100518 -19.314821 0.405833 1.102694 -14.379545 4.064368 -10.806431 71.986337 -0.399329 -2.432453 51.794746 172.942921 -1.807690 21.372159 -0.027558 7.252733 -14.804704 -1.927964 6.623349 49.161777 0.000219 -0.069343 33.362599 
